<svg id="Layer_1" data-name="Layer 1" xmlns="http://www.w3.org/2000/svg" viewBox="0 0 256 256">
  <defs>
    <style>
      .cls-1 {
        fill: #3f5c9a;
      }
    </style>
  </defs>
  <path class="cls-1" d="M204.7,23H51.3A28.3,28.3,0,0,0,23,51.3V204.7A28.3,28.3,0,0,0,51.3,233H127V158H107.6a4.62,4.62,0,0,1-4.62-4.58V129.19a4.63,4.63,0,0,1,4.59-4.64H127V101.19c0-27.13,16.55-41.89,40.7-41.89h19.86a4.62,4.62,0,0,1,4.58,4.61V84.29a4.61,4.61,0,0,1-4.58,4.61H175.4c-13.16,0-15.71,6.27-15.71,15.44v20.24h28.9a4.58,4.58,0,0,1,4.61,4.55,5.49,5.49,0,0,1,0,.58l-2.88,24.17a4.57,4.57,0,0,1-4.55,4H159.83L159.69,233h45A28.3,28.3,0,0,0,233,204.7h0V51.3A28.3,28.3,0,0,0,204.7,23Z"/>
</svg>
