<svg id="Layer_1" data-name="Layer 1" xmlns="http://www.w3.org/2000/svg" viewBox="0 0 256 256">
  <defs>
    <style>
      .cls-1 {
        fill: #1da1f2;
      }
    </style>
  </defs>
  <path class="cls-1" d="M89,213.32c79.28,0,122.63-65.68,122.63-122.63,0-1.88,0-3.71-.14-5.57A87.79,87.79,0,0,0,233,62.87a86,86,0,0,1-24.75,6.79,43.44,43.44,0,0,0,18.94-23.85,86,86,0,0,1-27.36,10.46A43.12,43.12,0,0,0,125.29,85.7a42.3,42.3,0,0,0,1.12,9.71A122.28,122.28,0,0,1,37.57,50.48,43.08,43.08,0,0,0,50.91,108a42.6,42.6,0,0,1-19.52-5.39,5.23,5.23,0,0,0,0,.56A43.13,43.13,0,0,0,66,145.43a43.47,43.47,0,0,1-19.45.75,43.16,43.16,0,0,0,40.26,29.93A86.51,86.51,0,0,1,33.3,194.54,86.5,86.5,0,0,1,23,194a122.08,122.08,0,0,0,66.08,19.36"/>
</svg>
