<svg id="Layer_1" data-name="Layer 1" xmlns="http://www.w3.org/2000/svg" viewBox="0 0 256 256">
  <defs>
    <style>
      .cls-1 {
        fill: red;
      }

      .cls-2 {
        fill: #fff;
      }
    </style>
  </defs>
  <g>
    <path class="cls-1" d="M228.63,77.51A26.32,26.32,0,0,0,210,59c-16.38-4.39-82-4.39-82-4.39s-65.67,0-82,4.39A26.27,26.27,0,0,0,27.39,77.51C23,93.87,23,128,23,128s0,34.17,4.39,50.53A26.27,26.27,0,0,0,46,197.12c16.36,4.32,82,4.32,82,4.32s65.66,0,82-4.39a26.31,26.31,0,0,0,18.65-18.49C233,162.2,233,128,233,128S232.91,93.87,228.63,77.51Z"/>
    <polygon class="cls-2" points="106.96 159.52 161.51 128.03 106.96 96.55 106.96 159.52"/>
  </g>
</svg>
